<svg xmlns="http://www.w3.org/2000/svg" width="1600" height="1020" viewBox="0 0 1600 1020" role="img" aria-labelledby="title desc">
  <title id="title">myai-novel 系统架构图</title>
  <desc id="desc">展示本地优先 CLI 写作系统的入口链、命令族、工作流层、planning retrieval context 层、基础设施层、外部适配器与数据层。</desc>
  <defs>
    <linearGradient id="bg" x1="0" y1="0" x2="1" y2="1">
      <stop offset="0%" stop-color="#f8fbff"/>
      <stop offset="100%" stop-color="#f5f7fb"/>
    </linearGradient>
    <linearGradient id="accent" x1="0" y1="0" x2="1" y2="0">
      <stop offset="0%" stop-color="#2563eb"/>
      <stop offset="100%" stop-color="#0f766e"/>
    </linearGradient>
    <pattern id="grid" width="32" height="32" patternUnits="userSpaceOnUse">
      <path d="M 32 0 L 0 0 0 32" fill="none" stroke="#e8eef7" stroke-width="1"/>
    </pattern>
    <filter id="shadow" x="-20%" y="-20%" width="140%" height="140%">
      <feDropShadow dx="0" dy="10" stdDeviation="14" flood-color="#94a3b8" flood-opacity="0.14"/>
    </filter>
    <marker id="arrow" markerWidth="10" markerHeight="10" refX="8" refY="5" orient="auto">
      <path d="M0 0 L10 5 L0 10 Z" fill="#94a3b8"/>
    </marker>
    <style>
      .title { font: 700 34px 'Avenir Next', 'PingFang SC', 'Microsoft YaHei', sans-serif; fill: #0f172a; }
      .subtitle { font: 500 16px 'Avenir Next', 'PingFang SC', 'Microsoft YaHei', sans-serif; fill: #475569; }
      .layer-title { font: 700 19px 'Avenir Next', 'PingFang SC', 'Microsoft YaHei', sans-serif; fill: #0f172a; }
      .card-title { font: 700 18px 'Avenir Next', 'PingFang SC', 'Microsoft YaHei', sans-serif; fill: #0f172a; }
      .label { font: 600 14px 'Avenir Next', 'PingFang SC', 'Microsoft YaHei', sans-serif; fill: #0f172a; }
      .body { font: 500 13px 'Avenir Next', 'PingFang SC', 'Microsoft YaHei', sans-serif; fill: #475569; }
      .tiny { font: 600 12px 'Avenir Next', 'PingFang SC', 'Microsoft YaHei', sans-serif; fill: #64748b; }
      .code { font: 700 12px 'SFMono-Regular', 'Consolas', 'Liberation Mono', monospace; fill: #1d4ed8; }
      .pill { fill: #eff6ff; stroke: #bfdbfe; stroke-width: 1.2; }
      .pill-green { fill: #ecfeff; stroke: #99f6e4; stroke-width: 1.2; }
      .pill-amber { fill: #fff7ed; stroke: #fed7aa; stroke-width: 1.2; }
      .card { fill: #ffffff; stroke: #dbe7f3; stroke-width: 1.2; }
      .layer { fill: rgba(255,255,255,0.78); stroke: #dbe7f3; stroke-width: 1.3; }
      .accent { fill: url(#accent); }
      .line { stroke: #94a3b8; stroke-width: 2; fill: none; marker-end: url(#arrow); }
      .soft-line { stroke: #cbd5e1; stroke-width: 1.7; fill: none; marker-end: url(#arrow); }
      .divider { stroke: #e2e8f0; stroke-width: 1; }
    </style>
  </defs>

  <rect width="1600" height="1020" fill="url(#bg)"/>
  <rect width="1600" height="1020" fill="url(#grid)" opacity="0.75"/>

  <text x="80" y="72" class="title">myai-novel 系统架构</text>
  <text x="80" y="102" class="subtitle">本地优先 CLI 写作系统 · 入口链、章节工作流、retrieval 闭环与版本化数据层</text>
  <rect x="1272" y="48" width="248" height="44" rx="22" class="pill-green"/>
  <text x="1396" y="75" text-anchor="middle" class="label">local-first CLI writing system</text>

  <g filter="url(#shadow)">
    <rect x="80" y="132" width="1440" height="112" rx="28" class="card"/>
  </g>
  <rect x="104" y="150" width="180" height="68" rx="20" class="pill"/>
  <rect x="320" y="150" width="248" height="68" rx="20" class="pill"/>
  <rect x="604" y="150" width="180" height="68" rx="20" class="pill"/>
  <rect x="820" y="150" width="316" height="68" rx="20" class="pill-green"/>
  <path d="M284 184 H320" class="line"/>
  <path d="M568 184 H604" class="line"/>
  <path d="M784 184 H820" class="line"/>
  <text x="194" y="177" text-anchor="middle" class="card-title">入口</text>
  <text x="194" y="198" text-anchor="middle" class="code">src/index.ts</text>
  <text x="444" y="177" text-anchor="middle" class="card-title">CLI 注册</text>
  <text x="444" y="198" text-anchor="middle" class="code">src/cli/index.ts</text>
  <text x="694" y="177" text-anchor="middle" class="card-title">命令 action</text>
  <text x="694" y="198" text-anchor="middle" class="body">资源 / workflow / db</text>
  <text x="978" y="177" text-anchor="middle" class="card-title">统一运行时</text>
  <text x="978" y="198" text-anchor="middle" class="code">runCliCommand</text>
  <text x="978" y="215" text-anchor="middle" class="tiny">日志 · 错误处理 · exitCode</text>

  <path d="M300 244 V286" class="soft-line"/>
  <path d="M800 244 V286" class="soft-line"/>
  <path d="M1300 244 V286" class="soft-line"/>

  <g filter="url(#shadow)">
    <rect x="80" y="292" width="450" height="116" rx="26" class="card"/>
    <rect x="575" y="292" width="450" height="116" rx="26" class="card"/>
    <rect x="1070" y="292" width="450" height="116" rx="26" class="card"/>
  </g>

  <text x="112" y="330" class="card-title">资源命令</text>
  <text x="112" y="355" class="body">book · outline · world · character · faction</text>
  <text x="112" y="378" class="body">relation · item · hook · chapter</text>
  <text x="112" y="398" class="tiny">经由 Domain Services / ChapterService 进入数据与 Markdown 边界</text>

  <text x="607" y="330" class="card-title">工作流命令</text>
  <text x="607" y="355" class="body">plan → draft → review → repair → approve</text>
  <text x="607" y="378" class="tiny">版本化章节生产线 + pointer 校验 + 事务提交</text>
  <rect x="607" y="388" width="240" height="18" rx="9" class="pill-green"/>
  <text x="727" y="401" text-anchor="middle" class="tiny">retrievedContext 作为全流程共享事实基线</text>

  <text x="1102" y="330" class="card-title">数据库命令</text>
  <text x="1102" y="355" class="body">db init · db check</text>
  <text x="1102" y="378" class="tiny">启动 / 校验底层数据库能力，不承载业务编排</text>

  <g filter="url(#shadow)">
    <rect x="80" y="446" width="430" height="346" rx="30" class="layer"/>
    <rect x="540" y="446" width="460" height="346" rx="30" class="layer"/>
    <rect x="1030" y="446" width="490" height="346" rx="30" class="layer"/>
  </g>

  <rect x="100" y="468" width="182" height="28" rx="14" class="accent"/>
  <text x="191" y="488" text-anchor="middle" class="label" fill="#ffffff">Workflow Orchestration</text>
  <text x="100" y="528" class="layer-title">章节工作流层</text>
  <rect x="100" y="548" width="390" height="36" rx="16" class="pill"/>
  <rect x="100" y="596" width="390" height="36" rx="16" class="pill"/>
  <rect x="100" y="644" width="390" height="36" rx="16" class="pill"/>
  <rect x="100" y="692" width="390" height="36" rx="16" class="pill"/>
  <rect x="100" y="740" width="390" height="36" rx="16" class="pill"/>
  <text x="124" y="571" class="label">PlanChapterWorkflow</text>
  <text x="124" y="619" class="label">DraftChapterWorkflow</text>
  <text x="124" y="667" class="label">ReviewChapterWorkflow</text>
  <text x="124" y="715" class="label">RepairChapterWorkflow</text>
  <text x="124" y="763" class="label">ApproveChapterWorkflow</text>
  <text x="362" y="571" text-anchor="end" class="tiny">两次 retrieval + 落库 plan</text>
  <text x="362" y="619" text-anchor="end" class="tiny">复用 currentPlan.retrieved_context</text>
  <text x="362" y="667" text-anchor="end" class="tiny">结构化审阅 JSON</text>
  <text x="362" y="715" text-anchor="end" class="tiny">基于 plan + draft + review 修稿</text>
  <text x="362" y="763" text-anchor="end" class="tiny">final + diff + sidecar + 回写</text>

  <rect x="560" y="468" width="238" height="28" rx="14" class="accent"/>
  <text x="679" y="488" text-anchor="middle" class="label" fill="#ffffff">Planning / Retrieval / Context</text>
  <text x="560" y="528" class="layer-title">上下文构建层</text>
  <rect x="560" y="550" width="200" height="64" rx="20" class="pill"/>
  <rect x="780" y="550" width="200" height="64" rx="20" class="pill"/>
  <rect x="560" y="632" width="420" height="68" rx="20" class="pill-green"/>
  <rect x="560" y="718" width="200" height="48" rx="18" class="pill"/>
  <rect x="780" y="718" width="200" height="48" rx="18" class="pill-amber"/>
  <text x="660" y="578" text-anchor="middle" class="label">RetrievalServiceFactory</text>
  <text x="660" y="598" text-anchor="middle" class="tiny">rule-only / embedding 开关</text>
  <text x="880" y="578" text-anchor="middle" class="label">RetrievalQueryService</text>
  <text x="880" y="598" text-anchor="middle" class="tiny">provider → rerank → builder</text>
  <text x="770" y="658" text-anchor="middle" class="label">RetrievalContextBuilder + Context Views</text>
  <text x="770" y="679" text-anchor="middle" class="tiny">hardConstraints · priorityContext · riskReminders · recentChanges</text>
  <text x="660" y="748" text-anchor="middle" class="label">Prompts</text>
  <text x="660" y="765" text-anchor="middle" class="tiny">plan / draft / review / repair / approve</text>
  <text x="880" y="748" text-anchor="middle" class="label">可选实验</text>
  <text x="880" y="765" text-anchor="middle" class="tiny">embedding candidate + heuristic rerank</text>

  <rect x="1050" y="468" width="160" height="28" rx="14" class="accent"/>
  <text x="1130" y="488" text-anchor="middle" class="label" fill="#ffffff">Infrastructure</text>
  <text x="1050" y="528" class="layer-title">基础设施层</text>
  <rect x="1050" y="550" width="136" height="56" rx="18" class="pill"/>
  <rect x="1200" y="550" width="136" height="56" rx="18" class="pill"/>
  <rect x="1350" y="550" width="148" height="56" rx="18" class="pill"/>
  <rect x="1050" y="624" width="200" height="64" rx="18" class="pill-green"/>
  <rect x="1264" y="624" width="234" height="64" rx="18" class="pill"/>
  <rect x="1050" y="706" width="448" height="58" rx="18" class="pill-amber"/>
  <text x="1118" y="580" text-anchor="middle" class="label">env.ts</text>
  <text x="1118" y="598" text-anchor="middle" class="tiny">dotenv + zod</text>
  <text x="1268" y="580" text-anchor="middle" class="label">DatabaseManager</text>
  <text x="1419" y="580" text-anchor="middle" class="label">LlmFactory</text>
  <text x="1419" y="598" text-anchor="middle" class="tiny">mock / openai / anthropic / custom</text>
  <text x="1150" y="653" text-anchor="middle" class="label">ChapterService</text>
  <text x="1150" y="673" text-anchor="middle" class="tiny">章节 CRUD · 版本导入导出 · 指针更新</text>
  <text x="1381" y="653" text-anchor="middle" class="label">Filesystem Adapter</text>
  <text x="1381" y="673" text-anchor="middle" class="tiny">Markdown I/O</text>
  <text x="1274" y="741" text-anchor="middle" class="label">Logger</text>
  <text x="1274" y="760" text-anchor="middle" class="tiny">CRUD / workflow / LLM 耗时与结果</text>

  <g filter="url(#shadow)">
    <rect x="80" y="822" width="670" height="156" rx="28" class="card"/>
    <rect x="780" y="822" width="740" height="156" rx="28" class="card"/>
  </g>

  <text x="108" y="858" class="card-title">External Adapters</text>
  <rect x="108" y="878" width="112" height="36" rx="16" class="pill"/>
  <rect x="232" y="878" width="112" height="36" rx="16" class="pill"/>
  <rect x="356" y="878" width="198" height="36" rx="16" class="pill-green"/>
  <rect x="566" y="878" width="152" height="36" rx="16" class="pill-amber"/>
  <text x="164" y="901" text-anchor="middle" class="label">SQLite</text>
  <text x="288" y="901" text-anchor="middle" class="label">MySQL</text>
  <text x="455" y="901" text-anchor="middle" class="label">mock / OpenAI / Anthropic / custom</text>
  <text x="642" y="901" text-anchor="middle" class="label">local Markdown files</text>

  <text x="808" y="858" class="card-title">Persistence / Data Layer</text>
  <rect x="808" y="876" width="92" height="36" rx="16" class="pill"/>
  <rect x="912" y="876" width="104" height="36" rx="16" class="pill-green"/>
  <rect x="1028" y="868" width="470" height="52" rx="18" class="pill"/>
  <rect x="912" y="928" width="276" height="48" rx="18" class="pill-green"/>
  <rect x="1200" y="928" width="298" height="48" rx="18" class="pill-amber"/>
  <text x="854" y="899" text-anchor="middle" class="label">books</text>
  <text x="964" y="899" text-anchor="middle" class="label">chapters</text>
  <text x="1263" y="889" text-anchor="middle" class="label">setting entities</text>
  <text x="1263" y="905" text-anchor="middle" class="tiny">world_settings · characters · factions</text>
  <text x="1263" y="919" text-anchor="middle" class="tiny">relations · items · story_hooks</text>
  <text x="1050" y="947" text-anchor="middle" class="label">version tables</text>
  <text x="1050" y="963" text-anchor="middle" class="tiny">chapter_plans · chapter_drafts</text>
  <text x="1050" y="977" text-anchor="middle" class="tiny">chapter_reviews · chapter_finals</text>
  <text x="1349" y="947" text-anchor="middle" class="label">sidecar</text>
  <text x="1349" y="963" text-anchor="middle" class="tiny">retrieval_documents · retrieval_facts</text>
  <text x="1349" y="977" text-anchor="middle" class="tiny">story_events · chapter_segments</text>

  <path d="M800 408 V446" class="soft-line"/>
  <path d="M1260 408 V446" class="soft-line"/>
  <path d="M305 408 V446" class="soft-line"/>
  <path d="M490 620 H540" class="line"/>
  <path d="M1000 620 H1030" class="line"/>
  <path d="M1268 688 V822" class="soft-line"/>
  <path d="M1150 688 V822" class="soft-line"/>
  <path d="M1381 688 V822" class="soft-line"/>
  <path d="M294 792 V822" class="soft-line"/>
  <path d="M770 792 V822" class="soft-line"/>

  <text x="80" y="1004" class="tiny">事实来源：docs/project-architecture-overview.md、docs/chapter-pipeline-overview.md、docs/retrieval-pipeline-guide.md、docs/retrieval-sidecar-provenance-guide.md</text>
</svg>
